<svg xmlns="http://www.w3.org/2000/svg" viewBox="0 0 64 64"><rect width="64" height="64" rx="15" fill="#58cc02"/><path d="M19 15c-2.5-4.5 2-7.5 4.8-4.6L26 14z" fill="#46a302"/><path d="M45 15c2.5-4.5-2-7.5-4.8-4.6L38 14z" fill="#46a302"/><ellipse cx="32" cy="34" rx="18.5" ry="19.5" fill="#7ed321"/><ellipse cx="32" cy="40.5" rx="12" ry="12.5" fill="#c7f2a0"/><circle cx="24.5" cy="28" r="8.2" fill="#fff"/><circle cx="39.5" cy="28" r="8.2" fill="#fff"/><circle cx="25.6" cy="29" r="3.7" fill="#3b3b3b"/><circle cx="38.4" cy="29" r="3.7" fill="#3b3b3b"/><circle cx="26.9" cy="27.6" r="1.2" fill="#fff"/><circle cx="39.7" cy="27.6" r="1.2" fill="#fff"/><path d="M32 32.5l-4.2 5h8.4z" fill="#ffc200"/><path d="M27.5 53.5v3.5M31 53.5v3.5" stroke="#ffc200" stroke-width="2.6" stroke-linecap="round"/><path d="M33 53.5v3.5M36.5 53.5v3.5" stroke="#ffc200" stroke-width="2.6" stroke-linecap="round"/></svg>